<svg version="1.1" id="Layer_1" xmlns="http://www.w3.org/2000/svg" xmlns:xlink="http://www.w3.org/1999/xlink" x="0px" y="0px"
	 viewBox="0 0 500 197.6" style="enable-background:new 0 0 500 197.6;" xml:space="preserve">
<style type="text/css">
	.st1{fill:#ffffff;}
</style>
<g>
	<path class="st1" d="M165.1,92.3c6,1.2,10.6,4.1,14,8.9c3.4,4.8,5.3,10.7,6,17.9v2.4c-1.3,14.9-7.9,23.4-19.8,25.6H77.7
		c-12.5-2-19.2-12-20-29.9h16c0.7,11.1,4.7,16.6,11.8,16.6h71.8c3.4,0,6.2-1,8.2-3.1c2-2,3.3-5.5,3.8-10.5c-0.7-4.4-2.1-8-4.1-10.5
		s-4.7-3.9-8.1-3.9H77.9c-6-1.2-10.7-4.2-14.1-9C60.5,92,58.4,86,57.7,78.9v-2.4c1.4-14.9,8-23.4,20-25.6h87.5
		c12.4,2.1,19,12.1,19.8,29.9h-15.9c-0.7-11.1-4.7-16.6-12-16.6H85.4c-3.4,0-6,1.2-8,3.5c-2,2.3-3.3,6-3.8,10.9
		c0.6,4.4,2,7.8,4.1,10.2c2.1,2.4,4.9,3.5,8.2,3.5H165.1z"/>
	<path class="st1" d="M301.4,105.6c2.8-0.3,5.4-1.1,7.8-2.5c2.4-1.4,4.5-3.3,6.3-5.7c1.8-2.4,3.2-5.2,4.2-8.4
		c1-3.2,1.6-6.7,1.6-10.5c0-0.9,0-1.9-0.1-2.8c0-0.2,0-0.5,0-0.7c0-0.8-0.1-1.7-0.2-2.5c0-0.2-0.1-0.5-0.1-0.7
		c-0.1-0.5-0.1-1.1-0.2-1.6c-0.1-0.4-0.1-0.7-0.2-1.1c-0.1-0.4-0.2-0.9-0.3-1.3c-0.1-0.6-0.3-1.1-0.4-1.7c-0.1-0.3-0.1-0.5-0.2-0.8
		c-0.4-1.3-0.9-2.6-1.5-3.7c-0.1-0.2-0.2-0.4-0.3-0.6c-0.2-0.3-0.4-0.7-0.6-1c-0.1-0.2-0.3-0.4-0.4-0.6c-0.3-0.5-0.6-1-1-1.4
		c-0.2-0.2-0.3-0.4-0.5-0.6c-0.2-0.2-0.4-0.5-0.6-0.7c-0.3-0.3-0.6-0.6-0.9-0.9c-0.2-0.2-0.5-0.4-0.7-0.6c-0.3-0.2-0.6-0.4-0.8-0.6
		c-0.2-0.1-0.4-0.3-0.6-0.4c-0.5-0.3-0.9-0.6-1.4-0.8c-0.1-0.1-0.3-0.1-0.4-0.2c-0.4-0.2-0.8-0.4-1.3-0.6c-0.2-0.1-0.4-0.2-0.6-0.2
		c-0.6-0.2-1.2-0.4-1.8-0.6c-0.1,0-0.1,0-0.2-0.1c-0.6-0.2-1.2-0.3-1.8-0.4c-0.2,0-0.4-0.1-0.5-0.1c-0.7-0.1-1.4-0.2-2.1-0.3H193.9
		v96.2h16V64.2h87.5c6.6,0,9.9,4.8,9.9,14.3c0,9.2-3.3,13.9-9.9,13.9h-56.3l0,0l59.5,54.8h20.5l-46.1-41.5H301.4z"/>
	<path class="st1" d="M323.7,50.9c0.2,0.2,0.4,0.4,0.5,0.6c0.5,0.7,1.1,1.4,1.6,2.2l0.1,0.1c0.2,0.3,0.4,0.6,0.5,0.8
		c0.3,0.5,0.6,1,0.8,1.5c0.2,0.3,0.3,0.6,0.4,0.9c0.8,1.6,1.5,3.4,2.1,5.2c0.1,0.3,0.2,0.7,0.3,1c0.1,0.3,0.2,0.6,0.2,0.9h45.1v82.9
		h15.9V64.2h51.1V50.9H323.7z"/>
</g>
<g>
</g>
<g>
</g>
<g>
</g>
<g>
</g>
<g>
</g>
<g>
</g>
</svg>